/* XPM */
static char *_475714418730[] = {
/* columns rows colors chars-per-pixel */
"182 25 249 2 ",
"   c #1E1F21",
".  c #1C1E23",
"X  c #1F2022",
"o  c #1F2123",
"O  c #1E2026",
"+  c #1E2228",
"@  c #202123",
"#  c #222426",
"$  c #242527",
"%  c #212329",
"&  c #21242B",
"*  c #25262A",
"=  c #21242C",
"-  c #20242D",
";  c #22242C",
":  c #22252C",
">  c #22262C",
",  c #22262D",
"<  c #23262D",
"1  c #23262E",
"2  c #22262F",
"3  c #24262E",
"4  c #24272E",
"5  c #24282D",
"6  c #24282E",
"7  c #25282F",
"8  c #252A2F",
"9  c #282829",
"0  c #2C2D2D",
"q  c #242831",
"w  c #2B2E35",
"e  c #313131",
"r  c #2A3346",
"t  c #2B3447",
"y  c #2C3648",
"u  c #2C3649",
"i  c #2D384B",
"p  c #2E384C",
"a  c #2F394C",
"s  c #30394E",
"d  c #303A4E",
"f  c #323C4F",
"g  c #343F51",
"h  c #354052",
"j  c #364254",
"k  c #374354",
"l  c #384455",
"z  c #394557",
"x  c #3A4658",
"c  c #3B475A",
"v  c #3F4B5C",
"b  c #414141",
"n  c #40454B",
"m  c #40454D",
"M  c #404961",
"N  c #404962",
"B  c #414A62",
"V  c #404A63",
"C  c #424B63",
"Z  c #414B64",
"A  c #414B65",
"S  c #424B64",
"D  c #414C65",
"F  c #424C65",
"G  c #414C66",
"H  c #414D67",
"J  c #424C66",
"K  c #424D66",
"L  c #434D66",
"P  c #424D67",
"I  c #434D67",
"U  c #434E67",
"Y  c #444E67",
"T  c #444F67",
"R  c #424E68",
"E  c #434E68",
"W  c #434F68",
"Q  c #424E69",
"!  c #424F69",
"~  c #434F69",
"^  c #434F6A",
"/  c #444F68",
"(  c #444F69",
")  c #4E5764",
"_  c #455069",
"`  c #44506A",
"'  c #45506A",
"]  c #44516A",
"[  c #45516A",
"{  c #44516B",
"}  c #45516B",
"|  c #46516B",
" . c #45526B",
".. c #44516C",
"X. c #45526C",
"o. c #45536D",
"O. c #46526C",
"+. c #47526C",
"@. c #46536C",
"#. c #46526D",
"$. c #46536D",
"%. c #46536E",
"&. c #46546D",
"*. c #46546E",
"=. c #47546F",
"-. c #48526A",
";. c #48536B",
":. c #48536D",
">. c #48536E",
",. c #48546C",
"<. c #49556D",
"1. c #48546E",
"2. c #49546E",
"3. c #49556E",
"4. c #48546F",
"5. c #49546F",
"6. c #48556F",
"7. c #49556F",
"8. c #49566E",
"9. c #49566F",
"0. c #49576F",
"q. c #565B65",
"w. c #475570",
"e. c #475671",
"r. c #495570",
"t. c #4A5570",
"y. c #495670",
"u. c #495671",
"i. c #4A5770",
"p. c #4A5671",
"a. c #495772",
"s. c #495773",
"d. c #4A5672",
"f. c #4A5772",
"g. c #4A5773",
"h. c #4B5773",
"j. c #4A5871",
"k. c #4A5972",
"l. c #4A5873",
"z. c #4B5873",
"x. c #4F5B72",
"c. c #4F5C73",
"v. c #4A5874",
"b. c #4B5874",
"n. c #4B5974",
"m. c #4B5875",
"M. c #4B5975",
"N. c #4B5A75",
"B. c #4B5976",
"V. c #4B5A76",
"C. c #4C5874",
"Z. c #4D5975",
"A. c #4D5A75",
"S. c #4D5A76",
"D. c #4D5B76",
"F. c #4C5B77",
"G. c #4F5C74",
"H. c #4F5D75",
"J. c #4E5C77",
"K. c #505C73",
"L. c #505D73",
"P. c #515D74",
"I. c #505D75",
"U. c #515E75",
"Y. c #505E76",
"T. c #515F76",
"R. c #505E77",
"E. c #505F77",
"W. c #525E76",
"Q. c #525F76",
"!. c #525F77",
"~. c #505F78",
"^. c #526077",
"/. c #516078",
"(. c #516079",
"). c #516179",
"_. c #526078",
"`. c #526178",
"'. c #526179",
"]. c #536179",
"[. c #526279",
"{. c #51617A",
"}. c #53627A",
"|. c #53637B",
" X c #546078",
".X c #546178",
"XX c #546179",
"oX c #546279",
"OX c #54627A",
"+X c #55637B",
"@X c #55647A",
"#X c #55647B",
"$X c #55657B",
"%X c #54637C",
"&X c #55637C",
"*X c #55647C",
"=X c #55657C",
"-X c #54647D",
";X c #55647D",
":X c #56657C",
">X c #56647D",
",X c #56657D",
"<X c #57657D",
"1X c #56667D",
"2X c #55657E",
"3X c #56657E",
"4X c #56667E",
"5X c #57667E",
"6X c #56677E",
"7X c #56677F",
"8X c #58667E",
"9X c #58677F",
"0X c #57687F",
"qX c #576880",
"wX c #576980",
"eX c #586880",
"rX c #596880",
"tX c #596981",
"yX c #596982",
"uX c #5A6982",
"iX c #596A82",
"pX c #596A83",
"aX c #5B6A82",
"sX c #5A6B83",
"dX c #5B6B83",
"fX c #5C6C83",
"gX c #5A6B84",
"hX c #5B6B84",
"jX c #5B6C84",
"kX c #5B6C85",
"lX c #5C6C84",
"zX c #5C6D85",
"xX c #5C6D86",
"cX c #5D6E86",
"vX c #5D6F87",
"bX c #5E6F87",
"nX c #5E6F88",
"mX c #5E7088",
"MX c #5E7089",
"NX c #62738C",
"BX c #717B8A",
"VX c #737D8D",
"CX c #687990",
"ZX c #768293",
"AX c #758294",
"SX c #768295",
"DX c #778295",
"FX c #778395",
"GX c #778495",
/* pixels */
"0 e $ @         X           X     X                                                                                                                 X                                                                                               X X                                                                                       X                     X # 9 b ",
"* n BXDXDXGXGXDXGXGXDXGXGXDXDXGXDXDXDXDXDXZXDXDXDXDXDXDXDXDXAXDXZXZXDXDXDXDXZXZXDXAXAXAXZXZXZXZXAXAXDXZXAXAXAXAXDXDXZXDXAXZXAXAXAXAXAXAXZXDXAXAXAXAXDXZXAXAXAXAXDXDXDXDXAXDXAXAXAXAXAXAXAXZXAXAXAXAXAXAXAXAXAXAXDXDXDXDXAXAXAXAXAXAXAXAXZXZXDXAXAXAXZXZXAXAXAXAXDXZXZXDXDXZXZXZXZXZXAXAXZXZXZXDXDXDXDXZXDXDXDXDXDXDXDXDXAXDXDXDXDXAXDXDXDXDXDXDXGXDXGXGXDXGXGXDXGXDXGXVXq.o ",
"5 CXmXmXmXmXmXmXmXmXmXbXbXbXbXmXbXbXkXbXbXbXbXbXkXbXbXbXfXbXkXbXbXbXbXbXkXbXbXbXbXbXkXbXbXbXbXbXkXbXbXbXbXfXkXbXbXlXbXlXpXbXfXbXbXfXyXbXbXfXbXbXkXzXzXfXbXfXzXzXlXlXlXlXpXbXfXbXbXfXyXbXbXbXbXbXyXbXkXbXbXfXyXbXlXlXlXlXkXbXkXbXbXfXzXzXbXfXbXbXkXzXzXfXzXbXkXkXbXbXbXbXkXbXfXbXbXfXkXbXbXbXbXbXkXbXfXbXbXbXkXbXbXbXbXbXkXbXbXbXbXbXkXbXbXbXbXbXbXbXmXmXmXmXmXmXmXmXmXmXNX) ",
"5 mXmXnXnXbXbXnXbXbXbXbXbXbXkXkXzXzXzXkXbXfXaXfXyXfXaXfXfXyXzXzXbXaXaXaXyXbXyXfXfXfXyXzXfXfXaXfXfXfXyXfXfXyXzXzXaXlXlXlXbXyXfXfXfXfXyXzXfXaXaXaXzXzXyXfXfX0XzXzXlXlXlXlXbXyXfXfXfXfXyXzXfXaXaXaXfXfXfXfXfXfXyXzXlXlXlXlXzXyXfXfXzXfXfXyXfXaXaXaXzXzXyXfXzXfXfXfXfXaXaXfXzXzXzXyXzXzXzXzXfXfXaXaXzXzXzXyXfX0XzXzXfXaXaXlXzXyXfXfXzXfXkXkXaXbXaXbXbXkXbXbXbXbXbXnXmXmXmXmXnXv ",
"q kXbXkXbXbXkXkXkXbXyXkXfXyXfXaXyXzXfXaXaXaXaXaXaXaXyXaXyXaXyXaXaXaXaXaXaXaXaX8X0XyX9XaXaXaX0XaXaXaXaX9XyXaXyXaXrXaXrXrXrXrXaXrXyXyXaXyXaXyXrXrXrXrXrXaXyXaXyXaXrXrXaXrXaXaXaXaXyXyXaXyXaXrXrXyXaXyXaXaX0XaXyXaXrXrXaXrXrXrXrXrX0XyX9XaXaXrXaXrXaXaXaX9X0XyXyXaXaXrXaXaXaXaXaXaX0XyX0XaXaXyXaXaXaXyXaXaXyXyXaXyXrXaXrXaXrXaXfXfXyXyXaXaXaXfXaXbXzXzXyXbXkXkXbXkXkXkXkXkXkXc ",
"5 yXkXkXpXpXkXpXbXaXyXyXyXyXyXyX0X0X0X0X0XyX0X0X9X0X9X0X0X0X0XyX8X8XrXrXrX8XaX8X9X9X9X9X9X9X9X9X9X9X0X9X0X0X9X9X8X8XrXrXrXrX8X8X9X9X9X9X9X9X9X9XrXrXrXrX0X0X9X9XrXrXrXrX8XrX8X8X9X9X9X9X9X9X9X9X9X9X9X9X0X9X9X9XrX<XrXrXrXrXrX8X9X9X9X9X9X9X9X9X9X9X9X9X0X9X9X9X8X8X8X8X8X8X8X8X9X9X9X9X9X9X9X0X9X9X9X0X0X0X0X0XaX8XrXrXrX8X8X8X0X0X0X0X0XyX0XyX0XyXyXyXyXkXpXkXpXkXkXkXkXx ",
"5 yXyXyXyXyXpXyX0X0XyX0X0X0X9X9X9X9X#X<X9X9X<X<X9X:X<X<X<X<X9X<X:X<X<X<X8X<X<X<X9X<X<X<X9X<X<X<X9X:X<X<X<X<X<X<X8X<X<X<X8X8X8X8X<X<X#X#X:X9XoX9X>X>X9XoXoX9XoX9X!.<X8X!.8X!.!.8X#X#X9X#X<X9X>X9X>X>X<XoXoX9X>X>X<X<X<X<X<X<X8X:X2X<XoX9X9X9X9X9X9X:X<X<X<X<X9X:X:X<X<X<X8X8X<X<X<X<X<X<X9X9X<X<X9X:X<X<X<X<X9X9X:X:X<X:X9X<X<X<X9X<X<X<X9X9X9X9X0X9X0X0XqXyXyXyXzXqXyXyXyXx ",
"5 qXqXqXqXqXqXqX0X2X0X2X#X9X#X2X#X#X#X#XoX#XoX#XoXoX@X@X#X#X#XoX:X X:X:X!.:X<X<XoX#X#X@XoX#X#X@XoXoX@X@X#X#X#XoXQ.:X:X:X<X!.8X8X#X@X#X#XoX#XoX<XoX>X#X#XoX#X#XoX:X:X<X:X:X8X<X<X#X#XoX#XoX#XoXoX#XoX#X#X#X#X#XoX:X!.:X<X<X!.<X8X#X@X#X#XoXoXoXoXoXoX@X@X@X#X#XoX:X X:X:X:X!.<X<X#X#X@X@XoXoXoX#X#XoX@X@X@X<XoXoX.X:X:XoX:X:X:X8X#X#X#X#X#X#X#X#X#X2X0X2X2X0X0XqXwXqXqXqXqXk ",
"7 2X2X2X2X0X2X2X2X2XoX2XoXoXoXoXoX.X.X.X.X.X.X!.oX!.!.!. XQ.Q. XQ.!.!.!.!.!.Q.!.!.!.!.Q.!.!.!.!.oX!.Q.!.!.!.!.!.!.!.!.!.!.!.!.!.!.!.!.W.!.!.Q.Q.oX!.!.!.!.!.!.:XQ.!.!.!.!.!.W.!.!.!.!.Q.!.Q.!.!.oX!.!.!.!.!.!.!.!.!.!.<X!.!.!.!.!.!.!.W.!.!.Q.Q.oX!.!.Q.!.!.!.!.Q.Q.!.!.!.!.Q.W.!.!.!.Q.!.Q.!.!..X!.!.Q.!.!.!.Q.!.!.!.<X!.Q.Q.!..X.X.X^.oX.X#X{.oX#XoX#X>X2X2X2XqX2X0XqX2Xk ",
"2 2X2X2X#X2X#X{.oXoXoXoX{.^.{.W.^.W.W.W.P.!.!.P.!.!.!.P.!.!.Q.Q.P.P.Q.Q.!.!.W.P.Q.W.W.P.Q.!.!.K.!.!.Q.Q.P.P.Q.Q.!.!.!.!.P.P.W.W.Q.W.W.P.Q.Q.Q.P.!.!.P.K.!.!.W.W.P.P.Q.W.!.!.W.P.!.W.W.P.Q.!.!.P.!.!.!.!.W.K.!.!.Q.Q.W.W.P.P.!.!.Q.W.W.P.Q.W.W.P.!.!.!.P.Q.Q.Q.!.!.P.Q.Q.W.!.W.P.Q.W.W.P.Q.!.!.K.!.!.!.!.!.K.!.!.Q.Q.W.W.!.P.Q.Q.W.W.W.^.W.W.^.^.^.oXoX{.{.oXoXoX|.|.|.|.2Xj ",
"2 |.#X|.|.{.{.{.{.{.W.W.W.E.W.W.W.P.P.P.P.P.P.P.P.K.K.P.K.P.P.P.K.K.K.P.W.P.K.K.W.P.P.K.P.P.K.K.K.P.P.P.K.K.K.K.K.K.W.P.K.K.K.K.W.P.K.K.W.P.P.K.K.K.K.K.K.K.P.P.x.P.P.P.W.P.K.K.W.P.P.K.P.P.K.K.K.K.P.P.K.K.K.K.K.K.P.P.K.K.K.K.W.P.K.K.W.P.P.K.K.K.K.K.K.K.W.P.P.x.x.P.W.P.K.K.W.P.P.K.P.P.K.K.K.K.P.P.K.K.K.P.x.P.P.P.K.K.K.P.P.P.P.P.W.P.W.W.W.W.^.^.^.{.{.oX|.|.|.|.|.h ",
"2 {.{.{.{.{.^.{.^.~.H.W.H.H.c.x.c.c.K.K.K.K.K.K.K.K.x.x.x.x.x.P.x.x.x.P.P.P.x.x.K.K.x.x.K.P.K.K.x.x.x.P.K.K.K.K.x.K.K.P.x.x.x.K.K.K.x.K.K.K.x.P.K.K.K.x.x.x.K.K.x.x.x.x.P.K.K.x.K.K.x.x.x.P.K.K.x.x.x.K.K.K.K.K.x.x.K.K.x.x.x.K.K.K.x.K.K.K.x.K.K.K.x.x.x.x.K.P.x.x.x.P.P.P.x.x.K.K.x.x.K.P.K.K.x.x.x.K.K.K.K.K.x.x.x.P.x.x.K.P.c.c.c.c.c.c.c.H.H.W.H.H.W.W.~.{.{.{.{.{.{.h ",
"> j.j.j.k.j.j.y.8.8.8.8.8.;.+.8.;.;.;.;.-.-.-.-.-.-.-.-.-.-.-.-.' -.-.' -.' -.-.-.-.-.-.-.-.-.-.Y -.' -.-.-.-.-.-.-.-.-.-.-.' -.-.-.-.-.' -.-.' -.' -.' -.-.-.-.' -.-.' -.' -.' -.-.-.-.-.-.-.-.Y -.-.-.-.-.-.-.-.-.' -.-.-.' -.-.-.-.-.' -.-.' -.-.-.' -.-.-.-.' -.-.' -.' -.-.-.-.-.-.-.-.-.-.Y -.-.-.-.-.-.-.-.-.' -.-.-.' -.-.-.-.;.;.;.;.;.8.;.8.8.8.8.j.j.a.j.j.a.j.p ",
"> ` ! ` ` ` ! ! G G G G G C S N N S N N N N N N M N N N M M M M N C C M M M C C M M M M N N N N M C N C M M B B M M M C M M M C M M M M N N C M M N C N M M M M N N C N C M C M M M M M N N N N C B N B N N N N M M N C M C N N M M M M N N C N M M C C M M M M N C C M M N C C M M M M N N N N M B B B N C N N M M C C M C N C M M N N N C N C C N G G G G G G ! ` ` ` ^ r ",
"% ..........` ` ` ` G G L L L S L G G N S S B S B B S S S B B B S S S S C C S S S S C C S S S S B S B S B S S S C C C S C S C S C C C M S N C S C C S N C C C M N S C C C M S C C C C M B B B B M B B S B B B S M C C C C C N S C C C M N S C C C C S S C C C C S S S S C C S S S S C C S S S S B B B S B S B S B B C B C B B S N L C C L G C G G G G G ! ` ` ` ..........i ",
"> ` o.o...o...o.` ` ` ` / ! L ! G L G G S L L S L L L S L L S S S I S S S S I S S S S S S I S S S S S / S S L S C S Y S S S S S S Y S S I S S S S B I S S S S S I S S S S S S S S Y S S I I S I S S S S S S L S S S S S C S S S S Y S S I S S S S S I S S S Y C I S S S S S I S S S S S I S S I S L Y S S S L S Y B Y S S S S I L G G G G L G ` G ` ` ` ` ` +.+.o...+...` i ",
"2 o...e...+.e.+.+.^ +.^ +./ / / _ ` _ L / / I / / / I ' S ' Y Y / I / I / I / S ' Y Y Y / / / / / / S / I / I / ' I / I / / / / Y Y Y Y Y Y Y Y / / / / / I I / I / S ' S ' Y Y / I / I / S / S ' S / I / / / / ' I / I / / / / Y Y Y Y / / / I / S / S ' Y Y Y / I / I / I / S ' Y Y Y / / I / / I / I / / / / / / / I L / L L L _ / / / / ` ` ! +./ ..+...+.+.o.e.w...e.i ",
"2 e.e.e.e.e.e.e.w.w.w.+.+.+.2./ ` -.` ` / / / ^ ' ' ' ' ' ' ' ' / / / | ' ' ' ' ' ' ' ' / / / ' ' ' | ' ' | / / ' ' ' / ' ^ / ^ Y Y | Y ' ' ' ' ^ / / / ' ' | / ' ' ' ' ' ' ' ' ^ / ' ' ' | ' ' ' ' ' / ' ' / / ' ' ' / ' ^ / / Y Y | | / / ' ' ' | ' ' ' ' ' ' / / / | ' ' ' ' ' ' ' ' / / / ^ ' ' ' | / ^ / / ' ^ / / / -.` / ` ` / +.+.` / 2.+.+.+.w.e.o.w.e.e.e.e.e.e.i ",
"> e.s.s.s.s.h.e.y.t.w.t.w.+.2.2.2.-.;.8.| 2.^ 2.| | | | 2.' ' 2.| 2.2.^ 2.| 2.| | ' 2.' ^ 2.2./ | 2.2.' 2.' ^ 2.' 2.| 2.| 2.+.+.>.| >.-.| >.| >.+.+.+.2.2.2.| | | | 2.2.2.' 2.' | 2.| 2.2.| | | 2.' | 2.| 2.2.' | | | 2.| 2.^ 2.>.| >.| 2.' 2.^ 2.| | | 2.' 2.' | 2.| 2.2.2.| | | ' 2.' / 2.2.-.| 2.| | 2.| ^ 2.| 2./ 2.2.2.-.2.-.-.2./ +.2.2.2.w.2.t.e.y.y.y.h.e.e.h.s.y.p ",
"2 y.h.k.k.k.h.h.y.h.y.y.t.y.t.t.2.2.2.2.2.2.2.2.2.2.2.2.2.2.-.2.| 2.2.2.2.| 2.| 2.2.2.2.+.2.2.2.2.' ' 2.' 2.2.| 2.' | 2.| | 2.^ >.>.' >.>.| >.| +.+.+.^ | | | 2.2.| | | ' 2.' 2.2.^ 2.^ | 2.2.| ' 2.| 2.| | ' 2.| 2.| 2.| | 2.^ ' >.| >.' 2.| 2.| 2.2.| ' 2.' 2.2.^ 2.^ | | | 2.2.2.2.2.2.-.2.2.| 2.2.| 2.2.2.+.| 2.2.2.| 2.2.2.8.2.2.2.2.t.2.2.+.t.y.h.y.y.h.h.k.h.k.k.k.u ",
"2 S.k.k.B.k.F.F.k.k.h.h.m.y.m.d.y.y.y.y.t.t.y.t.t.t.t.t.2.t.t.2.t.t.t.t.t.t.t.t.2.2.2.2.2.t.8.t.2.t.t.2.t.2.t.t.2.t.2.t.t.w.t.t.5.5.5.5.2.t.2.t.t.w.t.t.t.t.w.t.t.t.t.t.2.2.2.2.w.t.t.w.t.t.w.w.2.2.2.t.8.t.2.2.2.t.2.t.t.w.t.t.2.t.t.t.2.t.t.2.2.2.2.8.2.2.2.t.w.t.t.w.t.t.t.t.2.2.2.2.t.2.2.2.2.t.2.t.t.t.t.t.t.t.t.t.d.2.d.5.t.t.y.y.y.y.y.h.h.h.h.h.h.h.B.F.k.B.k.B.k.s ",
"> j.k.F.k.S.B.k.B.B.B.B.m.m.m.y.h.h.h.y.y.y.y.y.y.h.y.y.t.t.t.t.y.y.y.y.t.y.y.y.d.t.d.d.d.d.d.d.t.t.t.t.y.y.y.y.t.t.t.t.y.h.t.y.d.d.d.d.t.t.t.t.e.h.t.t.t.y.t.y.t.y.y.y.d.d.d.d.y.h.t.t.t.y.t.h.d.d.d.t.d.d.d.d.t.d.t.t.e.h.t.t.t.t.d.t.t.t.d.y.d.d.d.d.d.d.d.t.h.h.t.t.t.y.y.y.d.t.d.d.y.t.d.d.t.d.t.t.y.y.t.t.t.t.d.d.d.d.d.5.d.d.y.y.y.h.h.h.B.k.k.B.B.F.k.k.~.B.B.B.B.g ",
"2 B.F.F.F.F.F.F.F.F.B.B.B.B.m.B.h.m.h.h.m.h.h.h.h.h.h.h.m.m.m.h.m.h.h.m.h.h.m.m.m.m.m.d.d.d.S.y.d.m.m.h.d.S.d.S.d.m.m.m.h.h.B.h.x.y.d.d.m.d.m.t.h.h.s.h.h.s.h.h.h.h.y.h.d.d.d.d.h.h.s.h.h.s.h.h.d.d.d.m.d.y.m.d.m.d.m.y.h.h.h.h.h.t.m.t.h.y.h.m.m.h.S.d.S.d.m.m.h.k.h.h.h.h.m.h.m.m.d.m.m.m.m.m.h.m.m.m.h.h.m.m.h.m.m.m.m.m.h.h.m.h.h.h.m.m.h.B.k.B.S.F.F.F.F.F.B.B.B.B.B.s ",
"% g F.~.H.S.F.F.F.F.k.~.K.F.F.F.F.F.S.S.S.S.S.S.m.F.K.m.S.m.S.m.m.S.S.m.S.m.m.F.Z.Z.m.Z.S.S.d.S.m.m.m.m.S.d.S.d.S.m.d.m.F.h.h.h.m.m.m.d.m.m.m.m.m.h.B.h.h.h.m.m.h.h.S.d.S.Z.m.m.B.k.h.h.h.h.m.h.S.m.d.m.S.d.m.d.m.m.m.m.B.k.h.m.Z.m.m.m.m.m.m.m.m.m.d.S.d.Z.m.d.m.h.S.m.B.h.m.m.m.Z.K.m.m.m.S.m.m.K.m.m.K.m.S.m.m.K.m.m.m.m.F.F.S.S.S.S.S.F.F.F.H.S.S.F.F.F.F.F.B.~.~.F.e.+ ",
"m 2 . 2 7 7 q q q q q q q q q q q q q q q q q q 7 q q q q q q q q q q q q q q q q q q q q q q q 7 7 7 q q q q q q q q q q q q q 7 7 7 q q q q q q q q q q q q q 7 q q q q q q q q q q q q q q q 7 7 7 q q q q q q q q q q q q q q q q q q q q q 7 7 7 7 q q q q q q q q q q q q q q q q q q q q 7 7 q q q q q q q q q q q q q q 7 7 7 q q q q q q q q q q q q q q q q + + w "
};
