/* XPM */
static char *_476265185447[] = {
/* columns rows colors chars-per-pixel */
"4 26 104 2 ",
"   c #444953",
".  c #56564B",
"X  c #AB6142",
"o  c #D0423E",
"O  c #57574A",
"+  c #D64A44",
"@  c #D03134",
"#  c #BD1E21",
"$  c #A95F3F",
"%  c #D02F32",
"&  c #B61518",
"*  c #B41316",
"=  c #CF3F39",
"-  c #BE1D1F",
";  c #B41315",
":  c #B41315",
">  c #D63335",
",  c #B71416",
"<  c #B51214",
"1  c #B51214",
"2  c #D53234",
"3  c #B51214",
"4  c #B51214",
"5  c #B51214",
"6  c #D63133",
"7  c #B61113",
"8  c #B61113",
"9  c #B61113",
"0  c #D63132",
"q  c #B61112",
"w  c #B61112",
"e  c #B61112",
"r  c #D73031",
"t  c #B71011",
"y  c #B71011",
"u  c #B71011",
"i  c #D73030",
"p  c #B71010",
"a  c #B71010",
"s  c #B71010",
"d  c #D82F30",
"f  c #B80F10",
"g  c #B80F10",
"h  c #B80F10",
"j  c #D82E2F",
"k  c #B80E0F",
"l  c #B80E0F",
"z  c #B80E0F",
"x  c #D82E2F",
"c  c #B80E0F",
"v  c #B80E0F",
"b  c #B80E0F",
"n  c #D82F30",
"m  c #B80F10",
"M  c #B80F10",
"N  c #B80F10",
"B  c #D72F30",
"V  c #B70F10",
"C  c #B70F10",
"Z  c #B70F10",
"A  c #D73031",
"S  c #B71011",
"D  c #B71011",
"F  c #B71011",
"G  c #D63032",
"H  c #B61012",
"J  c #B61012",
"K  c #B61012",
"L  c #D63133",
"P  c #B61113",
"I  c #B61113",
"U  c #B61113",
"Y  c #D53133",
"T  c #B51113",
"R  c #B51113",
"E  c #B51113",
"W  c #D43133",
"Q  c #B51214",
"!  c #B51214",
"~  c #B51214",
"^  c #C73631",
"/  c #B41215",
"(  c #B41215",
")  c #B41215",
"_  c #934929",
"`  c #B61619",
"'  c #B31316",
"]  c #B31316",
"[  c #474739",
"{  c #A91C15",
"}  c #B31316",
"|  c #B31316",
" . c #424751",
".. c #414337",
"X. c #7E3617",
"o. c #A91B16",
"O. c #444953",
"+. c #40454F",
"@. c #373E4A",
"#. c #2A3A4E",
"$. c #444953",
"%. c #444953",
"&. c #424751",
"*. c #3E434D",
/* pixels */
"  . X o ",
"O + @ # ",
"$ % & * ",
"= - ; : ",
"> , < 1 ",
"2 3 4 5 ",
"6 7 8 9 ",
"0 q w e ",
"r t y u ",
"i p a s ",
"d f g h ",
"j k l z ",
"x c v b ",
"n m M N ",
"B V C Z ",
"A S D F ",
"G H J K ",
"L P I U ",
"Y T R E ",
"W Q ! ~ ",
"^ / ( ) ",
"_ ` ' ] ",
"[ { } | ",
" ...X.o.",
"O.+.@.#.",
"$.%.&.*."
};
