/* XPM */
static char *_476265191280[] = {
/* columns rows colors chars-per-pixel */
"1 26 26 1 ",
"  c #CF3B41",
". c #AE191F",
"X c #AF181D",
"o c #B0171B",
"O c #B1161A",
"+ c #B21518",
"@ c #B31417",
"# c #B41315",
"$ c #B51213",
"% c #B61112",
"& c #B71010",
"* c #B80E0F",
"= c #B80E0F",
"- c #B70F10",
"; c #B61012",
": c #B51113",
"> c #B41215",
", c #B31316",
"< c #B21418",
"1 c #B1151A",
"2 c #AF161B",
"3 c #AE171D",
"4 c #AD181E",
"5 c #AD181F",
"6 c #21374F",
"7 c #3A3F49",
/* pixels */
" ",
".",
"X",
"o",
"O",
"+",
"@",
"#",
"$",
"%",
"&",
"*",
"=",
"-",
";",
":",
">",
",",
"<",
"1",
"2",
"3",
"4",
"5",
"6",
"7"
};
