/* XPM */
static char *ijlxy_6y19t[] = {
/* columns rows colors chars-per-pixel */
"4 24 2 1 ",
"  c #3193D8",
". c None",
/* pixels */
"  ..",
"   .",
"    ",
"    ",
"    ",
"    ",
"    ",
"    ",
"    ",
"    ",
"    ",
"    ",
"    ",
"    ",
"    ",
"    ",
"    ",
"    ",
"    ",
"    ",
"    ",
"    ",
"   .",
"  .."
};
