/* XPM */
static char *b0egk_unbwx[] = {
/* columns rows colors chars-per-pixel */
"4 24 2 1 ",
"  c #3193D8",
". c None",
/* pixels */
"..  ",
".   ",
"    ",
"    ",
"    ",
"    ",
"    ",
"    ",
"    ",
"    ",
"    ",
"    ",
"    ",
"    ",
"    ",
"    ",
"    ",
"    ",
"    ",
"    ",
"    ",
"    ",
".   ",
"..  "
};
