/* XPM */
static char *_477664513138[] = {
/* columns rows colors chars-per-pixel */
"26 21 131 2 ",
"   c #143604",
".  c #153805",
"X  c #153905",
"o  c #153B05",
"O  c #163B05",
"+  c #163C05",
"@  c #163D05",
"#  c #173E05",
"$  c #184005",
"%  c #184105",
"&  c #184205",
"*  c #194406",
"=  c #194506",
"-  c #1A4706",
";  c #1B4A06",
":  c #1C4C06",
">  c #1C4D06",
",  c #1D5007",
"<  c #1E5207",
"1  c #1E5307",
"2  c #1F5307",
"3  c #1F5507",
"4  c #205607",
"5  c #205707",
"6  c #205807",
"7  c #215907",
"8  c #215A07",
"9  c #215B07",
"0  c #215B08",
"q  c #225D08",
"w  c #225E08",
"e  c #235E08",
"r  c #235F08",
"t  c #236008",
"y  c #246108",
"u  c #246208",
"i  c #246308",
"p  c #256408",
"a  c #256508",
"s  c #256608",
"d  c #266708",
"f  c #266809",
"g  c #266909",
"h  c #276909",
"j  c #276A09",
"k  c #276B09",
"l  c #286C09",
"z  c #286D09",
"x  c #296E0A",
"c  c #2A6E0B",
"v  c #2B6F0C",
"b  c #2B6F0D",
"n  c #2D700F",
"m  c #2E7110",
"M  c #2F7211",
"N  c #307212",
"B  c #307313",
"V  c #317314",
"C  c #337416",
"Z  c #347517",
"A  c #357617",
"S  c #357618",
"D  c #367719",
"F  c #37771A",
"G  c #38781B",
"H  c #39781C",
"J  c #3A791D",
"K  c #3B7A1E",
"L  c #3B7A1F",
"P  c #3C7B20",
"I  c #3F7C23",
"U  c #407D24",
"Y  c #407E25",
"T  c #417E26",
"R  c #437F28",
"E  c #448029",
"W  c #47822D",
"Q  c #48832E",
"!  c #49832F",
"~  c #4B8532",
"^  c #4D8633",
"/  c #4F8735",
"(  c #508836",
")  c #508837",
"_  c #518938",
"`  c #538A3A",
"'  c #558B3C",
"]  c #578D3F",
"[  c #588E40",
"{  c #5A8F42",
"}  c #5B9044",
"|  c #5D9146",
" . c #5E9247",
".. c #5F9248",
"X. c #60934A",
"o. c #61944B",
"O. c #62954C",
"+. c #63954D",
"@. c #64964D",
"#. c #66974F",
"$. c #669750",
"%. c #679851",
"&. c #689952",
"*. c #699953",
"=. c #6A9A54",
"-. c #6B9B56",
";. c #6D9C58",
":. c #6E9D59",
">. c #6F9D5A",
",. c #709E5B",
"<. c #729F5E",
"1. c #73A05F",
"2. c #76A263",
"3. c #77A364",
"4. c #78A365",
"5. c #7BA568",
"6. c #7FA86C",
"7. c #81AA6F",
"8. c #82AA70",
"9. c #83AB71",
"0. c #86AD74",
"q. c #88AE77",
"w. c #8BB07A",
"e. c #8BB17B",
"r. c #8CB17C",
"t. c #8DB27D",
"y. c #8EB27E",
"u. c #91B582",
"i. c #92B583",
"p. c #93B684",
"a. c None",
/* pixels */
"a.a.a.a.a.a.a.a.a.a.a.a.a.a.a.a.a.a.a.a.a.a.a.a.a.a.",
"a.a.a.a.a.a.a.a.a.a.a.a.a.a.a.a.a.a.a.a.a.a.a.a.a.a.",
"a.a.a.a.y.0.8.5.2.;.=.%.=.%.&.$.#.} ( Y N p a.a.a.a.",
"a.a.a.p.u.y.8.3.;.$.@.@.@...@.X. .] ^ I l y 1 a.a.a.",
"a.a.w.u.y.8.1.#.{ ` _ ) / _ ) ) ^ ! E D l w ;   a.a.",
"a.a.0.w.8.,..._ Q E I Y I I I I Y L A n f 6 *   a.a.",
"a.a.6.7.1. ./ E P H H H H H D D A A n h a 6 *   a.a.",
"a.a.3.2.@.) E L D M V M M M V M V N l h a 6 *   a.a.",
"a.a.;.-.] W L A M n b b b b b b v z f f i 3 *   a.a.",
"a.a.&.O.) E J V n z z z z z z z z z f p w 3 #   a.a.",
"a.a... .^ I D V b z z z z z z z z f f p w 3 o   a.a.",
"a.a.] ' W J V n z k k k k k k k z z p y 6 >     a.a.",
"a.a.~ ! U A n l z f f f g g g g f p p w 3 *     a.a.",
"a.a.J L V n l f p p p p i i i i y y w 6 : o     a.a.",
"a.a.n k f f y y t t w y w w w w w 0 4 > #       a.a.",
"a.a.i w 6 6 6 0 1 1 1 1 1 1 1 1 , : *           a.a.",
"a.a.a.> ; * % % # # # o o # # o o             a.a.a.",
"a.a.a.a.                                    a.a.a.a.",
"a.a.a.a.a.a.a.a.a.a.a.a.a.a.a.a.a.a.a.a.a.a.a.a.a.a.",
"a.a.a.a.a.a.a.a.a.a.a.a.a.a.a.a.a.a.a.a.a.a.a.a.a.a.",
"a.a.a.a.a.a.a.a.a.a.a.a.a.a.a.a.a.a.a.a.a.a.a.a.a.a."
};
