/* XPM */
static char *_475691678310[] = {
/* columns rows colors chars-per-pixel */
"32 24 33 1 ",
"  c black",
". c #046083",
"X c #0A7197",
"o c #0A7299",
"O c #09759D",
"+ c #0A759C",
"@ c #0A759D",
"# c #09769E",
"$ c #08769F",
"% c #09769F",
"& c #0B769E",
"* c #0776A0",
"= c #0777A1",
"- c #0777A2",
"; c #0879A3",
": c #0979A3",
"> c #097AA4",
", c #097AA5",
"< c #0A7AA5",
"1 c #0A7BA6",
"2 c #0B7BA6",
"3 c #0B7CA6",
"4 c #0C7CA6",
"5 c #0C7DA7",
"6 c #1181AC",
"7 c #1281AC",
"8 c #1384AE",
"9 c #1A8AB5",
"0 c #2394BE",
"q c #299AC4",
"w c #3CACD6",
"e c #3EAED8",
"r c None",
/* pixels */
"rrweeeeeeeeeeeeeeeeeeeeeeeeeewrr",
"rq0853333344444444444433333580qr",
"79<<<43<<333<3<45<<4<433<4<4<<97",
"<7<<<<<<<<<<<<<<<<<<<<<<<<<<<<7<",
",3,,<<,,3<<<<<<<<<<<<<<<,,,,<<3,",
",;;3<<,,;;;<,;,;<<<;<;;3;3;;<<,,",
";3;;3;;<;3<;;<,,<<;<;3;;;3;3<;;,",
";;;;;;;;;;;;;;;,;;;;;;;;;;;;;;;;",
";;;;----;;;;,,;,;;;-;---;;;;;;;;",
";*;*--------****--------*;------",
"--**--------*,;*--------**;-----",
"---;--$-----*......---$-;*---$--",
"----$---$----      ;-----------$",
"$$$-$$$$$$$$;      $$$$$$$$$$$-$",
"$-$$-$$--$$-$$$-$$;$$-$-$$$-$-$$",
"$$$$$$$$$$$$$$$$$$$$$$$$$$$$$$$$",
"#*#*#*#*#*&*####$###**&*#***#*#*",
"################$$#######&######",
"##**##*&############*######*#*##",
"+++++++@++@@@@@@+###++++++++++++",
"++*@@@@@+@@@@@@@++@@@@@@@@@@+*@@",
"o+@@&&&&*&&&&&&&&#&&&&&&&&&&++@o",
"r&@@@@@@@@@@@@@@@@@@@@@@@@@@&&@r",
"rrX@@@@@@@@@@@@@@@@@@@@@@@@#+Xrr"
};
