/* XPM */
static char *_475692188987[] = {
/* columns rows colors chars-per-pixel */
"32 24 37 1 ",
"  c black",
". c #022D40",
"X c #044E6B",
"o c #046083",
"O c #05658A",
"+ c #0A7197",
"@ c #06729A",
"# c #0A7299",
"$ c #09759D",
"% c #0A759C",
"& c #0A759D",
"* c #09769E",
"= c #08769F",
"- c #09769F",
"; c #0B769E",
": c #0776A0",
"> c #0777A1",
", c #0777A2",
"< c #0879A3",
"1 c #0979A3",
"2 c #097AA4",
"3 c #097AA5",
"4 c #0A7AA5",
"5 c #0A7BA6",
"6 c #0B7BA6",
"7 c #0B7CA6",
"8 c #0C7CA6",
"9 c #0C7DA7",
"0 c #1181AC",
"q c #1281AC",
"w c #1384AE",
"e c #1A8AB5",
"r c #2394BE",
"t c #299AC4",
"y c #3CACD6",
"u c #3EAED8",
"i c None",
/* pixels */
"iiyuuuuuuuuuuuuuuuuuuuuuuuuuuyii",
"itrw977778888889888888777779wrti",
"qe4448747447748466664878484844eq",
"4q4444444444444444444444444444q4",
"37334433444744444474444433334373",
"3<<744337<<<<4<444<44<<7<7<<4433",
"<7<<7<<47<<44<4<4<4<<7<<<7<74<<3",
"<<<<<<<<<<<<<<4XX<<<<<<<<<<<<<<<",
"<<<<,,,,<<<<3<<  <<<<<<3<<<<<<<<",
"<:<:,,,,,,,,:3:  ,,,,,,3:<,,,,,,",
",,::,,,,,,,,::<  :,,,,::::<,,,,,",
",,,<,,=,,,@oooo  oooo@<:<:,,,=,,",
",,,,=,,,,,o          o::,,,,,,,=",
"===,======O....  ....O::======,=",
"=,==,==,=,==<==  :::=,=,===,=,==",
"===============  --:============",
"=====---------:  ---------======",
"=%-=%----%----;  --------%-%-%-=",
"-%=%-----%-%--;-%------------=%=",
"$$$$$%%%-%-%;%&&%-%%&&%&%@%-%$$%",
"%%-%&&&&%%%%&&&&-%%%%%&&%%%%%%%%",
"+--%;;;;--;;;;;;;-;;;;;;;;;;%-%%",
"i%%%&&&&&%-%&&&:%%-;%%:&%%-%--%i",
"ii+%&&&&&%-%&&&%%;%%%%&&%%%%%+ii"
};
