/* XPM */
static char *_475129783612[] = {
/* columns rows colors chars-per-pixel */
"24 16 72 1 ",
"  c #242526",
". c #252526",
"X c #28292A",
"o c #29292A",
"O c #29292B",
"+ c #2A2A2B",
"@ c #2C2C2D",
"# c #263227",
"$ c #333435",
"% c #343536",
"& c #343537",
"* c #353537",
"= c #353637",
"- c #313D32",
"; c #3A3B3C",
": c #3B3C3D",
"> c #3D3E3F",
", c #32702F",
"< c #33762F",
"1 c #367933",
"2 c #377C33",
"3 c #3E3E40",
"4 c #3F4042",
"5 c #404042",
"6 c #404143",
"7 c #414244",
"8 c #424244",
"9 c #424345",
"0 c #434446",
"q c #444547",
"w c #454648",
"e c #464748",
"r c #464749",
"t c #47484A",
"y c #48494B",
"u c #494A4C",
"i c #4A4B4D",
"p c #4F5052",
"a c #525354",
"s c #58595B",
"d c #595A5B",
"f c #595A5C",
"g c #5B5C5E",
"h c #5C5C5E",
"j c #5C695E",
"k c #676869",
"l c #6C6D6E",
"z c #707072",
"x c #737475",
"c c #747576",
"v c #78797A",
"b c #7B7C7D",
"n c #47E03B",
"m c #49E33E",
"M c #4AE33E",
"N c #48E63C",
"B c #5DA259",
"V c #5CA459",
"C c #6BB067",
"Z c #818283",
"A c #868788",
"S c #878889",
"D c #8B978C",
"F c #8E8F90",
"G c #939394",
"H c #939495",
"J c #949596",
"K c #979799",
"L c #9A9B9C",
"P c #9B9C9D",
"I c #9C9C9D",
"U c None",
/* pixels */
"UUUUUUUUUUUUUUUUUUUUUUUU",
"UUUNNNNNNNNNNNNNNNNNNNUU",
"UUmCDKLPIIIIIIIIIIIKDCMU",
"UNBbAFGJHHHHHHHHGGGDSbBU",
"UNjlvZASAAAAAAAAASAZvljN",
"UNphkzccxxxcxxxxccczkgaN",
"UNeiasgssdsdssssssgsautN",
"UN8qtiiiuiuuiuuiuiuutq5N",
"UN40qtiyuuuuuuuuuuuuq05N",
"UN>40ttiuuiiuuuuuuuq04>N",
"UN;;3488880880880055>;;N",
"UN&$&&&&========****&$*N",
"UN-@+XXXX+++XXX+XXXXX@-U",
"UN2                   1U",
"UUn<#               #,UU",
"UUUUNNNNNNNNNNNNNNNNUUUU"
};
