/* XPM */
static char *_475129789742[] = {
/* columns rows colors chars-per-pixel */
"24 16 73 1 ",
"  c #242526",
". c #252526",
"X c #28292A",
"o c #29292A",
"O c #29292B",
"+ c #2A2A2B",
"@ c #2C2C2D",
"# c #332627",
"$ c #333435",
"% c #343536",
"& c #343537",
"* c #353537",
"= c #353637",
"- c #3E3031",
"; c #3A3B3C",
": c #3B3C3D",
"> c #3D3E3F",
", c #792A2B",
"< c #3E3E40",
"1 c #3F4042",
"2 c #404042",
"3 c #404143",
"4 c #414244",
"5 c #424244",
"6 c #424345",
"7 c #434446",
"8 c #444547",
"9 c #454648",
"0 c #464748",
"q c #464749",
"w c #47484A",
"e c #48494B",
"r c #494A4C",
"t c #4A4B4D",
"y c #4F5052",
"u c #525354",
"i c #58595B",
"p c #595A5B",
"a c #595A5C",
"s c #5B5C5E",
"d c #5C5C5E",
"f c #695C5E",
"g c #676869",
"h c #6C6D6E",
"j c #707072",
"k c #737475",
"l c #747576",
"z c #78797A",
"x c #7B7C7D",
"c c #802B2B",
"v c #832E2F",
"b c #872E2F",
"n c #F83333",
"m c #FF3333",
"M c #FB3535",
"N c #FC3535",
"B c #AF5354",
"V c #AD5455",
"C c #BA6363",
"Z c #818283",
"A c #868788",
"S c #878889",
"D c #978B8C",
"F c #988A8B",
"G c #8E8F90",
"H c #939394",
"J c #939495",
"K c #949596",
"L c #979799",
"P c #9A9B9C",
"I c #9B9C9D",
"U c #9C9C9D",
"Y c None",
/* pixels */
"YYYYYYYYYYYYYYYYYYYYYYYY",
"YYYmmmmmmmmmmmmmmmmmmmYY",
"YYNCFLPIUUUUUUUUUIPLDCMY",
"YmVxAGHKJJJJJJJJJKHGAxBY",
"YmfhzZASAAAAAAAAASAZzhfm",
"Ymydgjllkkklkkkkllljgdym",
"Ym0tuisiipipiiiiiisiut0m",
"Ym58wtttrtrrtrrtrtttw83m",
"Ym170wwtrrrrrrrrrrrr853m",
"YN<15wetrrttrrrrrrr083>m",
"Ym;;<155557557558332>;;m",
"Ym&$$$&*========&&&$$$&m",
"Ym-@+XXXX+XXXXX+XXXXX@-Y",
"Ymb                   vY",
"YYnc#               #,YY",
"YYYYmmmmmmmmmmmNmmmNYYYY"
};
