/* XPM */
static char *_475129778045[] = {
/* columns rows colors chars-per-pixel */
"24 16 73 1 ",
"  c #242526",
". c #252526",
"X c #28292A",
"o c #29292A",
"O c #29292B",
"+ c #2A2A2B",
"@ c #2C2C2D",
"# c #253434",
"$ c #333435",
"% c #343536",
"& c #343537",
"* c #353537",
"= c #353637",
"- c #3A3B3C",
"; c #3B3C3D",
": c #3D3E3F",
"> c #2F3F40",
", c #3E3E40",
"< c #3F4042",
"1 c #2A7A7A",
"2 c #404042",
"3 c #404143",
"4 c #414244",
"5 c #424244",
"6 c #424345",
"7 c #434446",
"8 c #444547",
"9 c #454648",
"0 c #464748",
"q c #464749",
"w c #47484A",
"e c #48494B",
"r c #494A4C",
"t c #4A4B4D",
"y c #4F5052",
"u c #525354",
"i c #58595B",
"p c #595A5B",
"a c #595A5C",
"s c #5B5C5E",
"d c #5C5C5E",
"f c #5B6A6C",
"g c #676869",
"h c #6C6D6E",
"j c #707072",
"k c #737475",
"l c #747576",
"z c #78797A",
"x c #7B7C7D",
"c c #2A8081",
"v c #2E8384",
"b c #2E8788",
"n c #54ADAE",
"m c #53AFB0",
"M c #62BBBB",
"N c #33F8F8",
"B c #35FBFB",
"V c #33FFFF",
"C c #35FCFC",
"Z c #818283",
"A c #868788",
"S c #878889",
"D c #8E8F90",
"F c #8A9899",
"G c #89999A",
"H c #939394",
"J c #939495",
"K c #949596",
"L c #979799",
"P c #9A9B9C",
"I c #9B9C9D",
"U c #9C9C9D",
"Y c None",
/* pixels */
"YYYYYYYYYYYYYYYYYYYYYYYY",
"YYYVVVVVVVVVVVVVVVVVVVYY",
"YYCMGLPIUUUUUUUUUIPLGMNY",
"YVnxADHKJJJJJJJJJKHDAxmY",
"YVfhzZASAAAAAAAAASAZzhfV",
"YVydgjllkkklkkkkklljgdyV",
"YV0tuisiipipiiiiiisiut0C",
"YV58wtttrtrrtrrtttttw83V",
"YV<700rtrrrrrrrrrrrw87<V",
"YV,<70wtrrttrrrrrrww7<:V",
"YV--,,5555755755753<:--V",
"YV&$&&**========****&&&V",
"YV>@XXXXX++XXXX+XXXXX@>Y",
"YVb                   vY",
"YYNc#             ..#1YY",
"YYYYVVVVVVVVVVVVVVVCYYYY"
};
