/* XPM */
static char *_475129795890[] = {
/* columns rows colors chars-per-pixel */
"24 16 73 1 ",
"  c #242526",
". c #252526",
"X c #28292A",
"o c #29292A",
"O c #29292B",
"+ c #2A2A2B",
"@ c #2C2C2D",
"# c #333427",
"$ c #333435",
"% c #343536",
"& c #343537",
"* c #353537",
"= c #353637",
"- c #3E3F31",
"; c #3A3B3C",
": c #3B3C3D",
"> c #3D3E3F",
", c #797A2B",
"< c #3E3E40",
"1 c #3F4042",
"2 c #404042",
"3 c #404143",
"4 c #414244",
"5 c #424244",
"6 c #424345",
"7 c #434446",
"8 c #444547",
"9 c #454648",
"0 c #464748",
"q c #464749",
"w c #47484A",
"e c #48494B",
"r c #494A4C",
"t c #4A4B4D",
"y c #4F5052",
"u c #525354",
"i c #58595B",
"p c #595A5B",
"a c #595A5C",
"s c #5B5C5E",
"d c #5C5C5E",
"f c #696A5E",
"g c #676869",
"h c #6C6D6E",
"j c #707072",
"k c #737475",
"l c #747576",
"z c #78797A",
"x c #7B7C7D",
"c c #80802B",
"v c #83832F",
"b c #87872F",
"n c #F8F833",
"m c #FFFF33",
"M c #FBFB35",
"N c #FCFC35",
"B c #ADAD55",
"V c #AFAF54",
"C c #BABB63",
"Z c #818283",
"A c #868788",
"S c #878889",
"D c #97988C",
"F c #98998B",
"G c #8E8F90",
"H c #939394",
"J c #939495",
"K c #949596",
"L c #979799",
"P c #9A9B9C",
"I c #9B9C9D",
"U c #9C9C9D",
"Y c None",
/* pixels */
"YYYYYYYYYYYYYYYYYYYYYYYY",
"YYYmmmmmmmmmmmmmmmmmmmYY",
"YYNCFLPIUUUUUUUUUIPLDCMY",
"YmBxAGHKJJJJJJJJKKHGAxBY",
"YmfhzZASAAAAAAAAASAZzhfm",
"Ymydgjllkkklkkkkllljgdym",
"Ym0tuisiipipiiiiiisiut8m",
"Ym58wtttrtrrtrrtrttrw85m",
"Ym1700rrrrrrrrrrrrrw055m",
"YN<150rtrrttrrrrrtw081>m",
"Ym;:<15555755755555<<:;m",
"Ym&$$$==============$$&N",
"Ym-@XXXXX+XXXXX+XXXXX@-Y",
"Ymb                   vY",
"YYnc#               #,YY",
"YYYYmmmmmNmmmmmNmmmNYYYY"
};
