/* XPM */
static char *pressanykey[] = {
/* columns rows colors chars-per-pixel */
"193 22 248 2 ",
"   c black",
".  c #010101",
"X  c #020202",
"o  c gray1",
"O  c #040404",
"+  c gray2",
"@  c #060606",
"#  c #070707",
"$  c gray3",
"%  c #090909",
"&  c gray4",
"*  c #0B0B0B",
"=  c #0C0C0C",
"-  c gray5",
";  c #0E0E0E",
":  c gray6",
">  c #101010",
",  c #111111",
"<  c gray7",
"1  c #131313",
"2  c gray8",
"3  c #151515",
"4  c #161616",
"5  c #181818",
"6  c gray10",
"7  c #1B1B1B",
"8  c gray11",
"9  c #1D1D1D",
"0  c #1E1E1E",
"q  c gray12",
"w  c gray13",
"e  c #222222",
"r  c #232323",
"t  c gray14",
"y  c #252525",
"u  c gray15",
"i  c #272727",
"p  c #282828",
"a  c #2A2A2A",
"s  c gray17",
"d  c #2C2C2C",
"f  c #2D2D2D",
"g  c gray18",
"h  c #2F2F2F",
"j  c #313131",
"k  c #323232",
"l  c gray20",
"z  c #343434",
"x  c #353535",
"c  c gray21",
"v  c #373737",
"b  c gray22",
"n  c #393939",
"m  c #3A3A3A",
"M  c gray23",
"N  c #3C3C3C",
"B  c gray24",
"V  c #3E3E3E",
"C  c #3F3F3F",
"Z  c gray25",
"A  c #414141",
"S  c gray26",
"D  c #434343",
"F  c #444444",
"G  c gray27",
"H  c #464646",
"J  c gray28",
"K  c #484848",
"L  c #494949",
"P  c gray29",
"I  c #4B4B4B",
"U  c #4C4C4C",
"Y  c gray30",
"T  c #4E4E4E",
"R  c gray31",
"E  c #505050",
"W  c #515151",
"Q  c gray32",
"!  c #535353",
"~  c gray33",
"^  c #555555",
"/  c #565656",
"(  c gray34",
")  c #585858",
"_  c gray35",
"`  c #5A5A5A",
"'  c #5B5B5B",
"]  c gray36",
"[  c #5D5D5D",
"{  c gray37",
"}  c #5F5F5F",
"|  c #606060",
" . c gray38",
".. c #626262",
"X. c gray39",
"o. c #646464",
"O. c #656565",
"+. c gray40",
"@. c #676767",
"#. c #686868",
"$. c DimGray",
"%. c #6A6A6A",
"&. c gray42",
"*. c #6C6C6C",
"=. c #6D6D6D",
"-. c gray43",
";. c #6F6F6F",
":. c gray44",
">. c #717171",
",. c #727272",
"<. c gray45",
"1. c #747474",
"2. c gray46",
"3. c #767676",
"4. c #777777",
"5. c gray47",
"6. c #797979",
"7. c gray48",
"8. c #7B7B7B",
"9. c #7C7C7C",
"0. c gray49",
"q. c #7E7E7E",
"w. c gray50",
"e. c #808080",
"r. c #818181",
"t. c gray51",
"y. c #838383",
"u. c #848484",
"i. c gray52",
"p. c #868686",
"a. c gray53",
"s. c #888888",
"d. c #898989",
"f. c #8B8B8B",
"g. c gray55",
"h. c #8D8D8D",
"j. c #8E8E8E",
"k. c gray56",
"l. c #909090",
"z. c gray57",
"x. c #929292",
"c. c #939393",
"v. c gray58",
"b. c #959595",
"n. c gray59",
"m. c #979797",
"M. c #989898",
"N. c gray60",
"B. c #9A9A9A",
"V. c #9B9B9B",
"C. c gray61",
"Z. c #9D9D9D",
"A. c gray62",
"S. c #9F9F9F",
"D. c #A0A0A0",
"F. c gray63",
"G. c #A2A2A2",
"H. c gray64",
"J. c #A5A5A5",
"K. c gray65",
"L. c #A7A7A7",
"P. c gray66",
"I. c #A9A9A9",
"U. c #AAAAAA",
"Y. c gray67",
"T. c #ACACAC",
"R. c gray68",
"E. c #AEAEAE",
"W. c #AFAFAF",
"Q. c gray69",
"!. c #B1B1B1",
"~. c #B2B2B2",
"^. c gray70",
"/. c #B4B4B4",
"(. c gray71",
"). c #B6B6B6",
"_. c #B7B7B7",
"`. c gray72",
"'. c #B9B9B9",
"]. c gray73",
"[. c #BBBBBB",
"{. c #BCBCBC",
"}. c gray74",
"|. c gray",
" X c gray75",
".X c #C0C0C0",
"XX c #C1C1C1",
"oX c gray76",
"OX c #C3C3C3",
"+X c gray77",
"@X c #C5C5C5",
"#X c #C6C6C6",
"$X c gray78",
"%X c #C8C8C8",
"&X c gray79",
"*X c #CACACA",
"=X c #CBCBCB",
"-X c gray80",
";X c #CDCDCD",
":X c #CECECE",
">X c gray81",
",X c #D0D0D0",
"<X c #D2D2D2",
"1X c LightGray",
"2X c gray83",
"3X c #D5D5D5",
"4X c gray84",
"5X c #D7D7D7",
"6X c #D8D8D8",
"7X c gray85",
"8X c #DADADA",
"9X c gray86",
"0X c gainsboro",
"qX c #DDDDDD",
"wX c gray87",
"eX c #DFDFDF",
"rX c gray88",
"tX c #E1E1E1",
"yX c #E2E2E2",
"uX c gray89",
"iX c #E4E4E4",
"pX c gray90",
"aX c #E6E6E6",
"sX c #E7E7E7",
"dX c gray91",
"fX c #E9E9E9",
"gX c #EAEAEA",
"hX c gray92",
"jX c #ECECEC",
"kX c gray93",
"lX c #EEEEEE",
"zX c #EFEFEF",
"xX c gray94",
"cX c #F1F1F1",
"vX c gray95",
"bX c #F3F3F3",
"nX c #F4F4F4",
"mX c gray96",
"MX c #F6F6F6",
"NX c gray97",
"BX c #F8F8F8",
"VX c #F9F9F9",
"CX c gray98",
"ZX c #FBFBFB",
"AX c gray99",
"SX c #FDFDFD",
"DX c #FEFEFE",
"FX c gray100",
/* pixels */
"  =   %   O         %               =   O                         ,   =               O     %   O %   % B 9.,.6.| I s     =       d } 4.6.,.A A                 O         O   O       ,   O         O   =   O     %     %       O   O       O           O   O       %                 %   ,   =     O             ,     O O O   %   ,     % O           O   %       O   =     O   % O   %   %     ",
"9.DXDXDXNXDXDXDXDXQ.g.|   %   % % 9.DXDXDXDXDXZXNXDX1Xz.o.=         3 vXDXZXDXDXZXDXDXZXZXDXP.3     6.pXDXzXDXNXDXNX-.O =     A *XvXDXvXDXDXDXZX                        % O   V.DXZXDXhXp.      % O   e vXDXDXDXDXZ.=       F ZXZXDXDXZXZX&.ZXvXDXZXDXZXQ.,   O m ZXzXDXZXDXZX8X= %   O     3 hXDXDXzXDXDX4.    B wXZXDXZXvXZXDXJ.e zXDXzXDXDXDXDXDXDXDXZX.X].DXDXNXZXDXvXI   O % D.DXDXDXDXzXDX4.",
"&.DXDXZXDXNXZXNXNXDXZXZXpXc O     6.ZXDXZXZXDXDXDXDXNXDXDXwXm % O     DXZXDXDXDXDXDXZXZXDXDX).    z.NXDXDXZXDXvXDXDX-.  %   Q wXNXDXNXDXZXZXZXDX                  %         i DXZXZXDXDX1X  O O   =     NXDXNXDXDXvX,.    O U DXDXNXNXZXDX  ].ZXDXZXDXDXDX} O   R.DXDXNXDXvXDX,.O %     O     DXZXDXNXDXZX9.  5 *XZXDXDXNXDXDXuXe   DXZXDXDXZXZXDXDXvXZXDXR.Q NXvXDXDXDXNX8X    c DXDXZXNXDXDX4X  ",
"4.ZXDXR.p.-.6.9.4.J.hXDXNXDX-.    4.DXDXR.r.6.-.9.&.4XzXDXNXDXo.      DXDXZX-.6.4.6.6.,.n.vX@X  o.ZXDXNX{.4.B 4.NXZX4.    , {.DXDX8Xg.| I ].DXvX                O   O     O 9.DXNXZ.V.DXNXI         %   ZXDXuXp.ZXDXhXi     A DXZX).8XDXDX  Q DXZXDXd.zXNXwX  A DXZX).*XNXDX8X          O O   vXDXvXZ.NXDXo., ).DXDX{.D.DXDXhXA   % DXNXDX&.9.6.-.6.6.J.vX)., R.DXZX4XJ.DXDX' O ].DXzXr.DXNXDX|   ",
"9.NXNX6.Q.NXDXuX{.r.o.V.DXDX8Xc   4.DXNXr.Q.DXDX*X*X,.A ].DXDXNXk   O DXNXZXQ vXDXNXDXDXDXDXQ.  1XZXDXn.| ).hX@XDXZX4.O   U DXZXpX~ g.8XpX4XDXDX                    O     % 4XNX1XF c DXDXn.    ,       ZXZXQ.3 9.DXDX.X%   A NXNX6.].ZXZXO   D.DXNXD.,.NXDX6.].NXuXm vXZXDXI   %   O     O   DXZXZXF NXDX6.p.ZXDXwXF zXvXDX9.  %   hXDXDXF vXDXDXZXNXNXDX@X  m DXZXDXm uXNX4X' DXDXg.p.DXDXQ.%   ",
"-.DXDX,.].DXDXvXDXvXpXB n.DXDXg.O 4.DXNX4.{.DXNXDXZXDXuX6.P.NXDX{.%   DXZXDXm DXNXZXDXZXvXDXQ.3 vXDXzXI zXZXZXDXZXDX9.O = ,.DXNXd.V.ZXvXDXDXZXZX                    %     s DXDX4.n.&..XDXpX=       O   DXZX.X-.U ].DXDXo.% U ZXZX4.].ZXDX    s ZXDXDXm 4XNXDXNXDX9.d.NXDX].        O         DXNXDXF DXNX@XDXDXDXA *XDXDXJ.  =     DXDXvXF DXZXDXzXDXDXNX].    V.DXZXn.&.ZXDXDXDXzXk pXvXDXF     ",
"6.DXvX-.@XDXNX,.V.DXDXNXs pXDX8X  ,.DXDX,.).DXZX4.d.zXDXhXI NXZXzXd   ZXvXDXB DXZXz.B B F U c   DXNXDXA DXDXDXJ.o.r.B     4.DXDX6.Q.DXDXzX9.U 9.                    O   O g.DXvXc ZX:X} ZXDX} %   %   O DXZX).6.@XF ZXvXDXI k DXDX6.].DXDX  =   Z.DXzX).,.vXZXDXzXd DXDXZXI       O       O   DXDXDXA DXDXvXDXZX' Z.NXDX:X, O       DXZXZXI NXDXn.F F A A c   O 5 DXNXDXF 4XDXDXZX6.z.DXDX).      ",
"-.DXDX9.Q.ZXDX    V.DXzXA uXNXDX  6.DXDX4.{.DXDX    F DXzX6.{.ZXZXI   ZXDXNXB DXDX6.%   %     O hXDXDXk zXNXDXz.  O O     6.DXZXn.6.ZXDXhXi %                   O       O NXDX{.| DXZXm zXZXQ.O O     O NXDX].,.DXd.6.NXZX8X' NXDX,.).DXZX      = pXDXZXA 4XDXvX4.n.DXvXn.  O         O   O % ZXDXZXB DXNXDXZXd.9.ZXDXzXc       O   DXDXZXF ZXZX6.    O %       % -.DXZXP.} ZXZXwXk DXDXZXi       ",
"-.DXNX-.{.DXDX    6.NXDXA {.DXDX  ,.DXDX9.].ZXZX      DXNX6.9.DXDX4.  DXDXNXm DXDXR.6.9.,.4.o.O z.ZXDXP.o.NXDXNXD.% %     e DXZXDXF :XDXDXpXI     =   %       O %     = | DXDX} :XZXZXz.z.ZXDXi %     % ZXDX).6.ZXZX' R.DXNXwXNXZX4.).DXDX      O &.DXDX@XF DX4XF ZXDXNXi   O         O       DXDXZXc DXNXDXQ.A DXZXDX'     % O     ZXZXDXA ZXDX].6.-.6.,.&.  % O = zXZXDXQ R.DX' .XDXDXV.  %     ",
"6.DXDX9.).DXZX%   g.DXZXA 1XDXNX  6.DXNX4.].DXDXO   e NXDX-.P.ZXDX}   ZXDXDXU zXDXDXNXNXNXDX{.  e hXZXDX9.4.zXDXNX@X0     % r.DXNXvXF {.DXDXNXo.%   O   O O   % O O O   .XDXpXm DXZXZXwXm ZXZX9.  O     DXZX{.4.DXZXuXd hXZXDXNXDX6.).DXZX  % %   e wXNXDX&.R.o.R.DXDXd.O     %               DXvXDXA DXDX*Xm zXZXDX9.O % O     O   NXZXDXI NXDXDXNXZXDXDX).      O 9.DXDX8X} :X~ zXZXpXi %   =   ",
"9.ZXZX6.].DXZXI ' vXDXhXs NXDXhX  6.DXDX4.].DXZXA &.*XDXNX} 8XDXDXA   DXDXZX0 r.4.4.4.p.Q.ZX.X    -.NXDXDXZ.U hXDXDXQ.d     , :XDXNXpXQ z.vXDXDX&.  %   O O           0 DXZXn.r.DXZXDXDXU wXDX8X  =     DXNX{.,.vXDXZX).~ DXZXDXDX6.].DXZX    O   % } DXNX:XA F DXDXuX0                       DXDXvXI ZXzXF k DXvXDX}     ,   O     DXDXNX3 g.,.,.9.p.Q.ZX@X  O     % 8XvXDX' B P.DXDX4.      O   ",
"-.DXDX,.).ZXDXvXDXDXZX,.,.DXZXV.  4.DXDX6.).DXDXvXDXDXvXP.o.ZXDX:X,   DXDXDXc Q.{.].R.].8XDX{.    O &.DXZXDX).F hXDXDXr.  %   3 *XZXDXpX&.n.DXZXwXc       O     O     r.NXDXI zXNX:XNXNX).4.DXNXU       DXZX{.,.DXNXNXDX-.p.vXNXDX6.).DXDX          = 4XZXDX} J.DXZX9.      %                 DXDXZX' pX-.D.p.&.DXNX4Xi     O O     ZXDXDXk .XQ.).].{.4XDX{.    = O   -.NXDXwXi DXDXwX3 %   O     ",
"4.ZXNX6.{.NXZXZXNXZ.U &.DXDXZXF O -.vXDX9.R.NXDXDXvXzX6.F ZXDXvX&.    DXDXNXF DXDXDXDXDXDXDX).    =   B uXNXDX:XA DXDXNXi   ,     d.zXDXDXI {.DXDXV.      % O   O   = 4XDXwXQ DXDX} P.DXvXm DXDXR.    O ZXDX].4.ZXDXNXzXDXm :XDXZX4.R.DXDXO   O %     9.DXzX4.].NXNX5       %         O       DXZXDXB 6.9.ZXhXF @XDXDXJ.%       =   DXDXZXF DXDXDXzXDXDXDX).O       %   ZXNXDXI DXvXz.%   O   O   ",
",.DXDX&.A A m F A p.4XDXDXDX&.  O 4.DXDX} U Q c I B   ].ZXDXNXZ.O   % DXZXNXA DXDX].6.4.-.,.| =     ,   , *XNXDX-.D.ZXDX6.    =     | DXvXZXm vXZXvX,     %     O O A NXDX-.P.ZXNX5 B DXZX4.D.ZXhX5     ZXDX].6.DXNX1XDXDX*XA ZXDXr.).ZXDXO     O =   9.DXDX6.].DXDX  %   O   O               DXDXZX= &.NXDXDX@XU zXZXDX-.    O     DXDXDXF ZXZX.X,.4.9.4.o.%       %   DXDXvXF ZXZX,.O   %   O   ",
"6.NXvXr.R.DXDXDXDXvXDXDXpX,.=     ,.ZXDX9.Q.ZXDXZXZX6.r.DXNXwXO   O   ZXNXDXA NXNX,.O       =   ,         &.DXDXuXI DXvXD.=         % *XDXzXo.1XvXDXk               n.DXpXA vXDX{.F F hXDXwX} DXDX-.    ZXDX].6.ZXNXQ {.ZXNX9.9.zX9.].ZXDX        O   6.DXDX6.).DXDX  %   O           O       DXNXDXe hXZXDXvXDX6.p.ZXZXNXi %       DXDXNXA DXDX&.O       =   O       = NXDXDXF DXDX,.  O   %     ",
"&.DXNX9.).DXZXZXvXDX{.,.s         4.DXZX4.].DXDXZXZXhXc pXDXZXQ       DXZXDXF ZXDXZ.A F I I A   ZXpXR.4.6.wXvXDX8X' vXDX{.4.NX{.V.9.z.DXNXDX&.@XDXZXA   %   O     % zXDXR.4.DXDXDXDXNXDXDXDXA pXDX{.=   DXNX.X,.NXDXc m zXDXDXQ @X&.).ZXDX          O 4.DXZX6.{.ZXDX        =                 DXDXNXI DXDX6.NXZXDXF R.DXNX].        ZXDXDXF ZXZXZ.B A I B I O     O     DXZXZXA ZXDX,.            ",
"4.ZXDX,..XDXDXA d %   O     O     ,.NXDX-.).ZXDX).DXNXR.| DXDX8X  %   DXDXDXm DXZXDXDXDXvXDXZX  DXDXDXZXDXDXZXZX4.P.vXDXd.4.DXDXDXZXDXNXDXzXk ZXDXDX= %       O O ' DXDX| o.-.6.,.6.,.9.6.,.B z.DXZXe   ZXZX.X,.DXDXU   ,.ZXZXhXe 4.].ZXZX          O 4.NXDX,.].DXzXO     O   O   O   O O   O ZXNXDXm DXzX4.~ DXDXwXc vXDXZX4.  =   ZXDXZXI DXDXDXDXNXDXDXpX3     %   O ZXDXDXF DXNX,.%           ",
"4.DXNX,.].DXDX  =     O           9.DXDXr.).NXDXe vXDXZXF @XDXDXr.  = DXvXDX~ NXDXDXZXDXDXDXZX  DXZX8X.XuXDX{.o.-.hXDXDXo.4.DXzX].@XNX8XV.k @XZXDX*X= O     O     wXZXwXm DXDXDXZXNXDXZXNXDXhXc DXZXd.  DXDX).6.DXDXk % O Z.DXNX).  {.DXDX    O   O   4.DXNX6.Q.DXDX    O           O O O     DXDXZXI zXDX-.O z.NXDXP.&.ZXDXpX0     DXNXDXc ZXzXDXNXDXNXDXDX    O   %   DXNXZXB ZXDX4.    %       ",
"-.DXZX.XwXvXZX        O           9.ZXNX.XwXDXDXO 9.DXDX4XP.DXZXwX3 O zXDXNX,.9.6.9.4.,.V.NXDX  DXvX].-.F U 6.J.ZXNXDX1X  6.zXDX9.o.F U n.4XzXDXDX-.    O % O   d uXDX:X{.NXDXNXZXDXZXZXDXZXvXn.hXDXzX% NXDXwX@XDXZXU     e wXDXDXZ.4XDXDX,     O %   4.DXNX].wXZXDX    %   O       O         DXDXhXD.ZXDX6.O 3 8XDXvXz.zXhXDX1X  , vXZXDX6.4.6.6.4.-.z.NXDX%   O       ZXDXZXJ.DXDX,.    =       ",
"9.ZXNXZXDXDXDXO     O       O   % 6.ZXDXZXZXDXZX  i @XDXZXDXZXDXDXZ.  DXDXZXDXDXDXNXDXDXNXDXZXO NXDXDXZXZXNXvXDXDXDXwXm = -.DXNXvXDXDXZXvXDXDXvXV.=             p.DXDXvXNXDXQ.B F A F B I pXDXNXDXDXZXF ZXDXDXzXDXDXB O     Q NXDXvXDXvXDX  O         4.ZXZXZXDXZXDXO O     O O         O O   DXZXDXvXNXDX6.    F uXDXDXzXDXzXZX6.  DXDXZXNXDXDXNXDXDXNXDXNX  =   O %   DXDXZXZXDXDX4.    O       ",
",.ZXDXZXZXDXvXO   O O             ,.NXDXDXzXNXDX    6.hXDXDXZXDXDXNXe DXNXDXDXDXDXDXDXZXDXDXvX  zXNXNXNXDXDXDXDXZXz.s     6.ZXDXZXZXNXZXDXDX@X&.%   , O         wXZXzXDXDXNX,.  O   O     D.zXDXZXNXDX].DXvXDXDXDXzXA         d.DXZXDXDXDX    %     O 6.vXDXDXzXDXhX=     O     %     =     = DXNXZXDXDXNX-.    O g.ZXNXDXZXNXDXDXA vXDXZXDXNXNXDXDXZXDXDXvX,   %     % vXDXDXDXDXvX,.=       O   ",
"        =   0         O             ,     % =   =   O   %   e     %       %           %     d     s Q &.4.4.&.| i     =       F &.9.6.4.-.F %     %     O %         = O   O     O O   O O   3     = %   O =       , %     O =       O       %   % %     ,     =   d   ,   %   O   %       0   3   ,     O %       O     ,   %   %   3             =       5   %   =     3   %     0     O % O     "
};
