/* XPM */
static char *_____________[] = {
/* columns rows colors chars-per-pixel */
"193 22 231 2",
"   c #020201",
".  c #0B0101",
"X  c #000A01",
"o  c #0B0A01",
"O  c #01020B",
"+  c #0C010A",
"@  c #000B0B",
"#  c #130101",
"$  c #1B0101",
"%  c #130A00",
"&  c #1D0A02",
"*  c #14010B",
"=  c #1C010A",
"-  c #001201",
";  c #001C01",
":  c #0A1800",
">  c #00130C",
",  c #001E0E",
"<  c #111202",
"1  c #1E1100",
"2  c #010112",
"3  c #0C0112",
"4  c #000B13",
"5  c #02011A",
"6  c #0C001C",
"7  c #020C1C",
"8  c #140014",
"9  c #1E0212",
"0  c #001114",
"q  c #001219",
"w  c #230100",
"e  c #2B0200",
"r  c #230A00",
"t  c #2B0B00",
"y  c #29000A",
"u  c #21080E",
"i  c #340200",
"p  c #3C0201",
"a  c #330B01",
"s  c #3C0B00",
"d  c #34000E",
"f  c #39010A",
"g  c #331300",
"h  c #3D1500",
"j  c #380010",
"k  c #002317",
"l  c #020220",
"z  c #0B0122",
"x  c #000B25",
"c  c #00052C",
"v  c #0C002B",
"b  c #001D27",
"n  c #001B2E",
"m  c #270027",
"M  c #002125",
"N  c #440201",
"B  c #4C0100",
"V  c #430A00",
"C  c #4D0A00",
"Z  c #43010B",
"A  c #4B0008",
"S  c #540201",
"D  c #5B0201",
"F  c #540B00",
"G  c #5C0B00",
"H  c #52000B",
"J  c #5A020C",
"K  c #431202",
"L  c #4D1400",
"P  c #551200",
"I  c #581100",
"U  c #5A1F00",
"Y  c #511209",
"T  c #400313",
"R  c #4A0012",
"E  c #460A11",
"W  c #640200",
"Q  c #6C0301",
"!  c #640A01",
"~  c #6B0A01",
"^  c #65000C",
"/  c #6B030B",
"(  c #740201",
")  c #7C0100",
"_  c #740A00",
"`  c #7B0B00",
"'  c #73030C",
"]  c #7B010B",
"[  c #7C0A0B",
"{  c #621300",
"}  c #6B1100",
"|  c #751300",
" . c #620414",
".. c #640C1A",
"X. c #7A0114",
"o. c #760813",
"O. c #75001A",
"+. c #830201",
"@. c #8C0100",
"#. c #830A00",
"$. c #8B0B01",
"%. c #83010C",
"&. c #8A000C",
"*. c #940101",
"=. c #9C0101",
"-. c #950A01",
";. c #9D0A01",
":. c #95000B",
">. c #9C020B",
",. c #950D0A",
"<. c #981400",
"1. c #870012",
"2. c #8D0316",
"3. c #830B15",
"4. c #81001B",
"5. c #8F0F1E",
"6. c #990013",
"7. c #A40101",
"8. c #AB0102",
"9. c #A40A00",
"0. c #AA0900",
"q. c #A4010A",
"w. c #AE050A",
"e. c #AA0D08",
"r. c #B30101",
"t. c #BC0102",
"y. c #B40A04",
"u. c #BA0E04",
"i. c #B40109",
"p. c #BB000C",
"a. c #B30A0D",
"s. c #BD080F",
"d. c #BD1007",
"f. c #A30212",
"g. c #AC0514",
"h. c #AA0A16",
"j. c #A7001E",
"k. c #B40213",
"l. c #BC0112",
"z. c #B40B12",
"x. c #B90B15",
"c. c #BE041C",
"v. c #830721",
"b. c #930B3D",
"n. c #B40024",
"m. c #BC0023",
"M. c #C30101",
"N. c #CB0102",
"B. c #C30B01",
"V. c #CB0A01",
"C. c #C2010C",
"Z. c #CC020B",
"A. c #C80E0F",
"S. c #D40201",
"D. c #DC0102",
"F. c #D20C01",
"G. c #DB0B02",
"H. c #D4030D",
"J. c #DB020B",
"K. c #DD0B0B",
"L. c #C91200",
"P. c #D6130F",
"I. c #C60011",
"U. c #CC0012",
"Y. c #CC001B",
"T. c #CA0B1D",
"R. c #D40113",
"E. c #DD0213",
"W. c #D50815",
"Q. c #DD0B13",
"!. c #D40219",
"~. c #DA021B",
"^. c #D6091A",
"/. c #D41117",
"(. c #DE1211",
"). c #D81519",
"_. c #E30302",
"`. c #EC0202",
"'. c #E30D03",
"]. c #EC0B01",
"[. c #E3030C",
"{. c #EC020B",
"}. c #E50A0B",
"|. c #EC0B0B",
" X c #F40202",
".X c #FD0202",
"XX c #F20A02",
"oX c #FE0A01",
"OX c #F4020B",
"+X c #FD020B",
"@X c #F40A0B",
"#X c #FE0B0C",
"$X c #E11600",
"%X c #ED1302",
"&X c #EC130E",
"*X c #F51202",
"=X c #FF1003",
"-X c #F0110C",
";X c #FC100D",
":X c #E40213",
">X c #EB0214",
",X c #E30A15",
"<X c #ED0912",
"1X c #E5021A",
"2X c #EC031B",
"3X c #E30919",
"4X c #ED0C18",
"5X c #F40113",
"6X c #FE0213",
"7X c #F20A13",
"8X c #FE0913",
"9X c #F3021A",
"0X c #FE021B",
"qX c #F2091E",
"wX c #FD0A1B",
"eX c #E71113",
"rX c #ED111B",
"tX c #FF1212",
"yX c #C90024",
"uX c #E50720",
"iX c #EA0421",
"pX c #EE0C24",
"aX c #E0022B",
"sX c #ED0328",
"dX c #F10124",
"fX c #FE0223",
"gX c #FF0A24",
"hX c #FD012B",
"jX c #F60828",
"kX c #EC0533",
"lX c #FD0031",
/* pixels */
"2 # .   . .   + +   X $ O 2 X . x + w     O .   # X - X   +     4 + 7 f # X . X e   - X . $ * 5 x 2   w B ( G D D Q e   X   X # X i Q ( ( ( D N                 X +     9   X i 3   - . X $ # @ . . 5 ; a   .   w + 2 X $     w #   . X & q 8   *   o w . O 2 2 0 - #   e X i   . X +   . 7 - Q . 4 . . w = 2 @ 5 > . X .   . $ m > w #   X X .   - * $ .   X w . X   w   X 3 2 @ @ = .   # X . . ",
"#.G. XOXOX.X X6XiXH.@.W < . X + # ) S.`.>X0X6X.X+X}.S.$.S # . @ X # . I.:X X0X0X X`.@X+X.X X=.% - e _ C.OX+X+X8X,XW./ *     . N M.OX.X|._.+X+X7X                  +     +   % ) sXJ.@X~.' .     X   3 o R.S.5XjXQ.2.X . X + a A.6X9X0X X6X] ~..X<XP.|.H.k.i .   W 5X{. X5X0XiXz..       . 7 X z. XdX5X@X[.] # # W :X>X+XQ.>X6X#X3.V `.OXoX0X X+X.X X.X X`.M.=.|.+X{.6X`.W.N $   i f.1X0XE.6X[.7XX.",
"+. XoX.X XoX].OX.X X8X[.Z.p $   . +..XoX+X6X@XF.K..X.XoX@XZ.S . X . $ .XoXoX X.X@XOX.X XoX+X8.  % *.+X6X.X`._. XoX6X&.= O # D e..X.X.X+X X.X.XoX                  .   . O   s ^..X X#XtXD.o   .     + #  X XoX XoXD.Q . O O W oXoXG. X X Xe =.oX.XoXoX.X6X( X o 7.+X.XXX XoX`.!   X     . O . pX.XoX`.oX.X! X % 7.oXoXoX.XoXoXD.w . _..XoXJ. X`.#X+XoX X+XN.+.fXoX.X XoX#XM.$ X p K. X.X.XoX X_.  ",
"/ >X6X7.+.@.+.) _ 7.9X7XoXD.) X . %.5X X7.@.@._ ] ) 8.D.+X8XOXQ #   X  X XG.( =.! ( +.( ;.2Xn.+ ) [.fXS.r._ ( (  X`.( X @ p p..XeXN.*.W ( r.{. X                    . + @   Q 6X].$.7..XOXN @ . . O O   OXoXL.` _..X{.s   O Q  X.Xr._..X`.  D {.`. X;.S.5X8.# Z XX(.M.V.XX#Xr.$ . X O X . O # 0X_.].-. X.XQ r 5..X{.t.0..XoXS.N 2   K.5X_.W *.+.D +.@.-.3X:.# b. X.XM.r.].wXN   r.wXOX7.oX_.OX~   ",
") +X.X*.*.G. X1Xr.+.+.*. X#X!.B . (  X X7.r.`. XU.I.@.{ 8.`.oX_.R O   .X.XOXQ Z..X.X.X X X#Xr.  M.0X0X) 8.7.U.p..X_.(   X D `..Xr.@.=.I.E.K..X.X                +   . + X $ 7.+Xd.( C S.+X6.X X # O X X 6X X7.p *.6X6X8.X @ N +X6X@.r.+XfXX = :..XwX#.) 9X>X*.l.6XN.W D..X+XN . . O .     O # 6X+X0XW  X.X=.+.6X0XZ.W N.6XOX' + 2 # oX+X.X( {.|.'..X.X X8Xt.. N OXfXfXB D.6XH.J +X6X=.+.+XOXp.o   ",
") .X.X+.7..XoX{.6XOXM.P =.0XhX2.. Q  X`.*.r..XoX.XoX_.S.+.7.$XXXq..   .X.X+XD  X.X.XOX XXX+Xw.&  X+XOXF Z.>XwXOX}.W.X..   ) +X X7.r.S.].*X_. X.X                    .     S D.oX+.=.W 8.@XR.e   .   @   0X6XC.^ Q r.OX X@.X w 0X6X( ;..X0X  @ i  X0XM.! _.&X.X X0X+._  X.Xr.o - + O .     X . 6X+X0Xs ].@XN.D.oXM.` 7.wXwX*.% O 2 . .X`. XB  X.X+X.X.X X+X0.  $ @.0X0X+.~ OX+X X.XN.F D.XX+XB -   ",
"( OX{.) 8.+XOX) 7.6X7Xt.Q :XqXD.* ] 6X X#.;.6X.X( *.D.gX X@.B.6X Xr   .X X|.i %X`.*.S p p A f X .X.X XN [.OX+Xr.( X.H .   +.#X X~ -.].oX X+.S Q                     . X + 6.+X$XS E.y.| G.+X( O . X     6X+Xp.o.8._ N.oX XF B 9X+X+.0.oX6X. X   w.0X6X;.*.V..X.XR._ `.oXOXD # @   4 *       . +X.X+Xp  X.X.X.XoX( 7. X+XN.% #   5 # .XOX5Xa 6X.X&.B N N H d X   p 5X.XOXC t. XoX X*.$.8XoXN.# O   ",
"( +XOX@.r.+XV.# X p.6XK.D V.oX X  ~ +XOX+.<.+X.X5 O S 2XD.*.t.0XoXi   .X X0XB .XwX( .     . * O {.@X+XB 5X+X+X#.X . . X   ) +X`.' q.OX.XJ.B   l                     + X * yX#X0.D 6X_.V N.oXr.2 . O . . +X Xt.) .X@.~ _.oX8.) +XOX@.t..X+X. O X $ J.gX[.S Z.+XoXX.*..X_.*.$ @ 8 X @ +       . +XXX6Xs 6X X6X6X#.[ J.oX XS   > O @ # oX#X+Xt .X XX..   @   O @ *   _ .X5Xz.D 6X XS.B ~.0X X& X v   ",
"( @X+X( p..XJ.X 2 @. XoXS t.6X.X+ (  X X) 8..X.Xz 6 # G.F.q.@. X.XW . `..X.XN ,X6XC.@.+.) @.J X 7.0X6X$._ D.+XoX8.o   @ 2 j 3X XdXC q.}.oXV.S   X   * + X . # @ + O 3 X _ .X6Xp  X]. X+.) wXJ.e   O 2 # +XoXt.Q .X0XK f.6X.XL..X X( t.oXOX  O   d C .XoXD.B /.D.D OX#XN.r * @ #     O       . .X.X.XS  X.XwXr.V XX#X>XW .     $ X   OX.X.XS 5X.XM.` ) ( ) W . 5 @ $ [..XoXQ *.fXD N.oX`.( = O O   ",
"( .XOX) t..X`.$ - #.+X6XS y.#XoX  Q .X#X+.8..X.XX   p .X.XQ q.#X XW .  X+X.Xs Z.`.|.{.OX XOXi.$ N J.+X X7.#._.#X6Xr.t   *   #..X8XS.~ t.`.K.0XW $   + +     #     O @   8.@X{.S }.oXoXS.! .X+X+.  @ 2 . +X.Xt.( .XS.:XF {.].oX XOX_ M. X X. 2   O & D.oX X) =.+.;.6X+X@.# @   .     O O   +   .X.X.Xr oX+Xp.S T.oX.X*.w X @ .     X +X6XoXV ,XG.oX_.OX+X+X0.# X   . +.6XXXt._ p.( [.#XM.N . O     ",
"+.oX.X) y.oX_.S ) R.0X!.W V.oXS.  Q .X7X+.0.+X.Xi Q M.oX.XD S. X|.D o  X.X.Xe r.) @.*.*.t.}.h.. X ! OXoX`.-.{ r..X+X*.p .   t C.oXG. XQ @.0X+X.XQ $   O     .     + X N _.}.7.*.`..XoX X! M.;XS.#   O   OX XM.' .X.X.Xr.D OX+X.X.X_ t.OX.X. O   @   ( +X6Xr.( S _.8Xt.p . X         O     .   .X XOXN  X XF N uXoX+X(   X X =   .   .X+X`.$ 7.7.) ~ 8.N.G.7.# O   X & Z.OX+X_ D 8.@X@X+.#   X     ",
"_ .X X+.i.oXoXT.0XqXl.*.*..X.X=.  / .XOX) 0.6X.X6XwXwXD.r.) &XoXw.i +  X.X+Xe t.i.x.i.0.V.5Xc.$ .   S [.6X}.r.( S.6X+X=.X   X w r..XoXD.! =._.oXp.S   X     X   O .   =.5XOXI J.6Xt. X+X8.! +X`.N . O X +X XM.(  X=X X.X( 8.6X X.X_ t. X X. O   O   $ C.wX:X) ) .X+XQ o   O .       O O     . .X X+XJ D.+.@.@.) .X8XC.p X . + . .   .XOXXXw t.t.w.,.M.D.}.w.w 5 * @   W OX+Xq.i _.8XM.N   @   .   ",
"( +X.X%.k. X+XhXM.-._ @.D.oX[.J   Q  X+X@.w.6X.X:X0Xp.,.( D..XD.S     .X.X+XN `.#X8XOX.XoX.Xt.# z +   C [.0X6XZ.! [.8X>Xe @ O 2 w =.G.8XS.U 8.+X6X@.. X     X   O . # J.wXN.F OXfXF *.rXOXh _.+X$.w X X 6X.XM.(  XoXoX].0XW Z.]..X_ p. X.X. O   * . X @.<X6X@.g..X Xr   X * .       O     +   .X X+Xf *.+.5X[.D 7.4XfXf.w   @ *     OX.XoXN 4XXX6X{.+X.X.Xr.w   $ @ + # 6X X>XN .XOX=.$ @ 0       ",
"] +X{.s p B N a ( @.t.{.#X_.( @ w @..X}.V s Q C N W o 6.R.#XOX8.$ X   .X.X+XB +X{.r.) ( _ ) Y - @ >   X & t.5X#XD =.{.6X+.# X O @ X !  X.X[.S sX8Xl.w X     X . O . S 0X6X$.7.oX[.w p :X0X) w.+XN.S     0X.XM.Q .X_.V.{.0Xt.! D. X( t.oXOX  O   . # X ) OXOX@.p.oX5XX   X . . +     O O        X X8X  _ +XfX5XV.! Z.gX9XQ - X     X OX.X.XB 6X.Xr.( ( ( ` D     . 2 8 . 8X X6XD .XOX+.. @ 4 .     ",
"( .X#X] m.<X X6XS. X+X4X~.! # @   Q .X6X@.q.5X_.).+X@.:.,X.XN.- # X X .X+X+XN  X6X+.# .   . = 2 # B *   # ~ _. X~.@.OX8X7.e . $ * # $ `.oXS.+.Y.oX,XN   X   o . O   7.6XD.Q _..XN.Q W  X+XC.) .X.X+.. X 0X.XM.Q +X[.) 9.{.6X+.:. X( t.oX+X. O     #   ( +X X) i..X>X        . 2     O     . . .XoX X  D.wXOXG.oX@.=.V.+XZ.g   O .   .X+X.XB 0X.X' $ .     . @ 2 X + 6 # -XoX+XB .X[.( . X + .     ",
") .X X( I..X.X.X.X.XD.Q A   . . X Q .X+X@.i.0X0X XoXD.S _. X+XN + O .  X+X+Xi  X.X*.p E E f d *  XV.j.O.&.D.oX X~.S ].#X8.` 0X,.1.] 3.9X.X$XW !. XOXD   X . . . 3 X J.6X7.) 8X.X.X>XR.oXoXE.S G..X6.= X 6X.XM.Q +X>XS p OX.X5XB `.Q t..X+X. O   X . . W 6X%X) p. X:X$ . $ X   7     O O   +   .XoX_.S 8X{.7._. X>X) 8..X+X=.o + .   .XOXoXN <X X$.N Z T Z Z X o - 7 5 #  XoX Xs .X1X( .   . + @   ",
"( ;X_.@.t. X@Xf o + .             Q +X X+.8.6X Xr.oX`.9.Q 0X+XL.X X . .X.X XW 9X@X.X.X+X]. X{.$  X X.X X X.X@X X*.r.OXOX@.) >X6X+X X+X@X6XN.L H.oX@Xe   . X .   + (  X0XQ D _ +.] &.+.( Q Q ^ J .X6XZ   .X.Xz.! _.6XS   4.sX X].1 Q U.`.OX# 2 4 5 O + ) 0X'.+.i. XOX# . . .   @ . O + X   @   :XoXOXt .X6X%.C 0X X[.B U.+XOX+.@ 2 # OXOX{.1 +X|.+X+X#X`.|.>XX     + 9 o 9X+X1XD `.`.) o + + X     ",
"W +X.X*.M..XOX. + .               ( +X X7.M.6XoXt [.6XOXG r.[..X( X    XoX.XD OX X.X.X.X.XoXOX. #X.XV.V.}.[.t.@.+.S..XG.Q @.XX_.t.J.>X X-.G N.6X XZ.w     - . .   M.oXS.S `..X`..X.XoXoXoX.Xt.F  X6X] # .X XM.+.oX`.N X $ >.OXoXr.i r.oX#X# X . . . . ( +X_.=.t.oX6X.       O   .   + X     # 0X.XOXQ  X XW . +.oX+Xr.) ]..XOXV X X %X6X.X(  X XoX.X X.X.X+X.   # O     +X.X`.S oX+X+..   +   .   ",
"Q .X.Xr.S..X{.#                   )  XOXS.J. XoX# ] 5X7XS.u.|.+X1XS   _.|.`.Q *.) ` ~ +.=.>XkX+ 6X2Xi.( B B ~ 3.{.wXgXg.i Q wX X@.Q N D +.y.7X6X!.] $ X X   . O N Z.|.u.r.+X8X1X.X XXX+X+X+X Xt.`.@X!.i .X@X[.M.oX_.B     p t..XoX<. X{.F.w o .       ~ .XXXB._.oX5X    - - + +   @     . + $ 5X XOXp.XX>X .  r N.-X@Xt. X].+XN.$   R.0X`.+.=.) P Q *.t.{.fX$ 8 . O . o ].`. Xr..XOX) X X O   +   ",
") .X#X3X6XoXG..     .             ) _.XX<X5X X].O i w..X+X_.OX.X.X=.X  X.X@X5X_. XoXXX.XoXoX].   X X%X X.X.X+X.XwX7Xp.N . ( wXoX.X.X X XoXoXoXS.v.u + O X . . @ @..X.XwX{.+X@.Z f A Z i S t.#X.X`.].6XW `.|.5XXX.X6XS     - V H..XD.OXoX6XX   w . .   Q  X.X}.OX X>X        X   . O .   . O # 0XoXOXXX*XXX] .   S Z.+XoX X+X X.X) w ].#XoX X`.,XoX X.X X.XOXo . . X O X <XoX#X:XOXOX(     +   .   ",
"*. X.X<X6X X`.e . .             # +.D.`. X6X.XoX@ $ ` D..X X+XoX.XH.V oX_.oX6X.X+X.X.X+XOX X{.$ .XoXXX X X.X.X X6Xq.N . > ..1X X_. X`.+X+X{.D.( $ X O O   $ . O u..X X6X`.`.! w   .   X $ -.|.oX.X X#X=.`..X+XoXOX0XH   + X w w..X0XfXOX>X  @ # O   X / 5X+XqXhX.X0X.         +     .     0 X Z..X0X6X X X1.* . i 8._.+XD.6X_.*XaXD OXOX X5X+XfX XOX6X+X+X5Xo .   X * . :X`.fXlX#X9X&.$ * *   X   ",
"X o . $ i o : M     .           n + B e       X c 2 $ o # . o X + 5 x p X w @ # - X X .   e R b   i W +.+.( Q ! w - X . X   i S *.) Q ( ^ Z w   e #       . . @ 4 # # o   % X       X   * 9 @ X $ $ 4 k . w .     r         o X - ; i # e   x X + O - o S # ; - # N ; @ * # .     @ +     @ X *.  . - e B O 0 + @ O + X = o y X z , p w % ; . . # . X X # S q c . + * ; B . . X X w X ; X +   .   "
};
